PathFileType	4	(X/Y/Z)	pose_F01_0-81.trc
DataRate	CameraRate	NumFrames	NumMarkers	Units	OrigDataRate	OrigDataStartFrame	OrigNumFrames
30	30	10	21	m	30	69	81
Frame#	Time	CHip			RHip			RKnee			RAnkle			RBigToe			RSmallToe			RHeel			LHip			LKnee			LAnkle			LBigToe			LSmallToe			LHeel			Neck			Nose			RShoulder			RElbow			RWrist			LShoulder			LElbow			LWrist			
		X1	Y1	Z1	X2	Y2	Z2	X3	Y3	Z3	X4	Y4	Z4	X5	Y5	Z5	X6	Y6	Z6	X7	Y7	Z7	X8	Y8	Z8	X9	Y9	Z9	X10	Y10	Z10	X11	Y11	Z11	X12	Y12	Z12	X13	Y13	Z13	X14	Y14	Z14	X15	Y15	Z15	X16	Y16	Z16	X17	Y17	Z17	X18	Y18	Z18	X19	Y19	Z19	X20	Y20	Z20	X21	Y21	Z21	
69	2.3	-0.19142030965819717	1.836391827643068	-0.6108313841909314	-0.20618313807010508	1.834801199312023	-0.5560063686985207	-0.22792908104539003	1.704678765430723	-0.5318293000332023													-0.1711352636486113	1.8389095609718205	-0.6701610379700188	-0.1807096074006525	1.7106637428539704	-0.617955644985841	-0.19059436953798556	1.5901390920976664	-0.590964804395026	-0.19621551396722	1.561435252912457	-0.6508031117153583	-0.18171790797533158	1.5693891575369963	-0.662290723436516	-0.19698870121198805	1.5910793510568981	-0.5686031670769187	-0.18557795254098233	1.9824813864304722	-0.611743151783065	-0.19430762762423032	2.0459143202526944	-0.6656831374357509	-1.6870937404437267	1.887357416939971	1.079793382037503	-0.22497387099072616	1.8982385257813725	-0.48614499596751815	-0.20710831026224355	1.9067141910349126	-0.613425448482405	-0.1564272746461722	1.988471731126708	-0.6999035077727781	-0.1324347139673181	1.931742239285003	-0.7230355427491637	-0.16517607469915557	1.9205499255530765	-0.7158847288652425
70	2.3333333333333335	-0.19014558276354565	1.8364120539778483	-0.6162587873657114	-0.20636858899533686	1.835065834371529	-0.5560344546775726	-0.22853107865369046	1.7029752296056986	-0.5310873088978731													-0.1699696581860429	1.8377664875109714	-0.6753262954645819	-0.18187257316805755	1.7098805158601589	-0.6207170299721517	-0.19083438180331974	1.5911023565864677	-0.5907213633563058	-0.1960354200304431	1.5605324991335092	-0.6507421487757207	-0.18160118060284736	1.5687291485495476	-0.6623036127307849	-0.19724581657140322	1.589691907237987	-0.5677316326908419	-0.18355963438806422	1.9827615767020992	-0.6139942713608356	-0.1900221952072281	2.0463116328830746	-0.6700295734019523	-1.6759089835396277	1.8875304016195327	1.0610716150781794	-0.2230395071665067	1.8984518375253807	-0.48837543597237687	-0.19991791089376626	1.90938051583054	-0.6171482679360768	-0.15435953781021927	1.987237749591717	-0.7022735654599451	-0.13253146481741646	1.92978276106764	-0.7232338241282439	-0.1608771406726974	1.9214429556770412	-0.7210901839205126
71	2.3666666666666667	-0.1879028328397551	1.8375099988934147	-0.6188537125979312	-0.2051436958691598	1.8365761838377688	-0.5617824121541396	-0.22623240295774433	1.7043256627567973	-0.5336917910881953													-0.16976154399251767	1.8388807223419654	-0.6756852230191254	-0.1813119686821649	1.709249781230411	-0.6211132231039427	-0.19052452560944796	1.5896357055560548	-0.5910419535443627	-0.19641281003430464	1.559917261556231	-0.6502150412683855	-0.1816476424664663	1.5690877615769938	-0.6623490377897938	-0.1975623844323976	1.5887584426443402	-0.572235922715208	-0.18350822624508192	1.982359969488362	-0.6140274401731435	-0.1870214325373479	2.0464381543845844	-0.669303217600243	-1.6849765639628653	1.887513806151011	1.0774763312358913	-0.22299224915385485	1.8985528719696945	-0.4884409071902295	-0.1987451581523146	1.9166530169112126	-0.623725362088807	-0.15506270942756892	1.985971013005836	-0.7049127863081005	-1.2136967676824462	1.8445665828527538	0.3929131082119576	-0.16146872259371509	1.92194226949818	-0.7243474964293125
72	2.4	-0.1888635217334643	1.8359595356913951	-0.6217672406334831	-0.2060380124480763	1.8361471354455936	-0.5649684066331696	-0.2261458054189177	1.7039695510698296	-0.5337680717156388													-0.16987806269359404	1.8372631468678207	-0.6756102893142091	-0.17860350238038158	1.7109165371322552	-0.6202090602578796	-0.18842387129262889	1.589654500500666	-0.5932815735896206	-0.1951715149914263	1.560839078287393	-0.6476015538882689	-0.18157676562394817	1.5686909254437107	-0.6623026189995154	-0.1973095032753329	1.5877873542805896	-0.5722886695364846	-0.18154031642918472	1.9811460372797318	-0.6163097305870933	-0.18777015446727416	2.0466253133769396	-0.6722738709868559	-1.6839555777088495	1.8876945096246591	1.0764241993959802	-0.2228803333021055	1.8991635299535674	-0.4886019071784919	-0.19966756773853278	1.9197026296080635	-0.6186143547217487	-0.15295106688830834	1.9846445275994924	-0.7073948272176466	-0.1349156822114274	1.9234683772156966	-0.7312264322576668	-0.16342153260666725	1.9232427602458386	-0.7223100103398651
73	2.433333333333333	-0.18676368373877353	1.8358899867313945	-0.6240881599725884	-0.20615210275817125	1.8344434046363387	-0.5649390569045651	-0.22630721419400096	1.7024021892473142	-0.5334381431340754													-0.16781403409100695	1.8374593206009424	-0.6778347053422131	-0.17863855298999032	1.7082346369900792	-0.6199294317147085	-0.188480970786216	1.5898293362256781	-0.5931500428486081	-0.19395461916819148	1.558784575201752	-0.6524799924872894	-0.1816979553142741	1.5670736096776803	-0.6618518419811357	-0.1969071343950722	1.5880640788286735	-0.5680731697668886	-0.18150691898647436	1.9809098650230956	-0.6163320598792186	-0.1870237660380524	2.045452387435325	-0.6694437957886293	-1.693200191088342	1.887608417370556	1.093044374142675	-0.2229915174400972	1.8982550097244062	-0.4885040616918317	-0.20001572135984688	1.919022564141177	-0.618705254023051	-0.1508430007178259	1.9846298767421793	-0.7095770987825579	-0.1349381029137484	1.919143236643505	-0.7306990166871887	-0.1678139411547709	1.9248749555897167	-0.7180018394598854
74	2.466666666666667	-0.18666955379559957	1.8361934735982923	-0.6242384610310725	-0.20395871946436894	1.8362794901245023	-0.5673609794534966	-0.22633160657438486	1.7025115611610384	-0.5334162739300247													-0.16773702273598698	1.8375713282406931	-0.6779817409042144	-0.1793051274714403	1.7074478336269687	-0.623019193756125	-0.1884519410228744	1.5899199370783357	-0.5932182261647503	-0.19637395595599413	1.5596603435401815	-0.6502311384315369	-0.18188187706406442	1.5676392497110114	-0.6618029709559108	-0.19658203163655463	1.5888142512401242	-0.568982240587083	-0.18149583708038744	1.980709418687311	-0.6163387270703756	-0.18402994611168813	2.0455386322442832	-0.668517583123439	-1.6922950480500367	1.887617658234095	1.092175420259311	-0.22107532467556826	1.898665649394748	-0.4907492111701047	-0.2026673845187572	1.922112180168832	-0.6197675016147411	-0.15085858345024164	1.9843403691051256	-0.7096320407862937	-0.1348785000654631	1.917753372085047	-0.7308470494680219	-0.16546267852968613	1.925541367454137	-0.7205098378059565
75	2.5	-0.18460245581355422	1.8363786432640379	-0.626334120319164	-0.20411161456004456	1.8349994377094814	-0.567041033468922	-0.2241526642123706	1.7041666305408185	-0.5359793625616458													-0.16767184464670498	1.8373493993423016	-0.6779458154207202	-0.17930863213672135	1.7076774921710156	-0.6230592570046815	-0.18849128200781337	1.5902764363246986	-0.5931954520706012	-0.19608849716860846	1.5608136566130402	-0.650763747070967	-0.18188899115398718	1.567526548923996	-0.6616917060576457	-0.1967699624163434	1.5874141871324674	-0.5684282842512813	-0.17959448025573643	1.979327747341078	-0.6184762984302814	-0.18522106183991555	2.0453275497016774	-0.6632664491275237	-1.7027684733754669	1.8876434189240463	1.110172853220458	-0.22101756511049678	1.8984563621814192	-0.4907507106925952	-0.20479262732616987	1.9216048385293154	-0.6175723631785183	-0.15094389108580963	1.9830232667400811	-0.7096100222714063	-0.13412148524237727	1.9140972482906768	-0.7273650303043706	-0.1653761161604457	1.926069369363677	-0.7206176203881797
76	2.533333333333333	-0.18476419226630214	1.8350978098057518	-0.6262834309207858	-0.20426873461963552	1.8335833485551816	-0.5669859432578217	-0.22419350591746698	1.7045873362734452	-0.5359451727590461													-0.1656173959551319	1.8375191258322572	-0.6802544664331214	-0.17907668095919324	1.7091506290957936	-0.6234739569696631	-0.18859677733552488	1.5904972838675673	-0.5930861250518111	-0.19418267952914012	1.559457804548586	-0.6523290676605121	-0.18189549465809998	1.5677265278157908	-0.6617046258382786	-0.19622114997387227	1.5892320473867658	-0.564800318294598	-0.17959205788844082	1.9793399836948387	-0.6184833761983661	-0.1851624970129962	2.0443117114028837	-0.6628812575999244	-1.7028764283504008	1.8876827754578396	1.1103504635868156	-0.22194263273507076	1.8983110274997275	-0.49389494232705383	-0.2014686529982659	1.9223598802090889	-0.6251772659678129	-0.15092675982734546	1.9832248985463243	-0.7096060629112428	-0.13502675894380925	1.914347001736399	-0.7307606003819279	-0.16105490213989515	1.9249538150141419	-0.7252487576289418
77	2.566666666666667	-0.18477145778233428	1.8347720009123076	-0.6261695316647474	-0.20410587953621412	1.8347430882686435	-0.5670682106006617	-0.22632978980325483	1.7029010515027405	-0.5333478196318346													-0.16767479193463578	1.8370112813906523	-0.6779934843027521	-0.17837806746575224	1.7073452144838643	-0.6200222139090181	-0.18849047859045753	1.5900614963171846	-0.5931766731528789	-0.19385792887330988	1.5609346808051894	-0.6529967806964259	-0.1814828772268638	1.568714058400256	-0.6623749416532654	-0.1968713738206404	1.5875976374694616	-0.5680544877813662	-0.17960181051662735	1.9795317884807595	-0.6185134665223082	-0.18533426387829263	2.042949716568972	-0.6628654898942514	-1.6913543778977986	1.8876488868763621	1.0912544401613804	-0.22198325696264268	1.8982922390693322	-0.4938350529805335	-0.2026539484885142	1.92164984003145	-0.6196748921670806	-0.15095761377305217	1.9829125582350842	-0.7097020032102839	-0.13399176448769487	1.911432684191078	-0.7275307239096712	-0.16174850642979016	1.9238750178079191	-0.7282421916729133
78	2.6	-0.18666413059829443	1.8359894749121	-0.6241139419561198	-0.20309511776410683	1.8338203953865553	-0.5636783512867239	-0.22636268751663216	1.7028806045355092	-0.5333325147852818													-0.16772090441935553	1.837019115426241	-0.6779938624084096	-0.1771747796259466	1.7073614383082294	-0.6253321014396926	-0.18847312734506977	1.5901635770150078	-0.5932578086446431	-0.19399264730308305	1.5611012200497447	-0.6529514744012088	-0.18155311571920768	1.5686883015198194	-0.6623370927519868	-0.1974996339747377	1.586161403853106	-0.5716672998617292	-0.18162238957685398	1.9795006377667335	-0.6162420668328689	-0.18657655785366675	2.042410790234003	-0.6575614520111558	-1.7010178921052308	1.8876874683439184	1.1084604693055191	-0.2210478165044024	1.89814768249082	-0.49072403824039784	-0.20056194736780952	1.9218264450053764	-0.6219598867742392	-0.15308761967303935	1.9828212736212947	-0.7074300663788547	-0.13403298283362627	1.9152025031928486	-0.7274381709494062	-0.16325376802870611	1.9249347682103288	-0.7229253902989304
